<?xml version="1.0" encoding="UTF-8" standalone="no"?>
<!-- Created with Inkscape (http://www.inkscape.org/) -->

<svg
   xmlns:dc="http://purl.org/dc/elements/1.1/"
   xmlns:cc="http://creativecommons.org/ns#"
   xmlns:rdf="http://www.w3.org/1999/02/22-rdf-syntax-ns#"
   xmlns:svg="http://www.w3.org/2000/svg"
   xmlns="http://www.w3.org/2000/svg"
   xmlns:sodipodi="http://sodipodi.sourceforge.net/DTD/sodipodi-0.dtd"
   xmlns:inkscape="http://www.inkscape.org/namespaces/inkscape"
   version="1.1"
   id="svg3751"
   xml:space="preserve"
   width="100cm"
   height="100cm"
   viewBox="0 0 3779.5275 3779.5276"
   sodipodi:docname="logo.svg"
   inkscape:version="0.92.4 (f8dce91, 2019-08-02)"><metadata
     id="metadata3757"><rdf:RDF><cc:Work
         rdf:about=""><dc:format>image/svg+xml</dc:format><dc:type
           rdf:resource="http://purl.org/dc/dcmitype/StillImage" /><dc:title></dc:title></cc:Work></rdf:RDF></metadata><defs
     id="defs3755"><clipPath
       clipPathUnits="userSpaceOnUse"
       id="clipPath3857"><path
         d="m 0,283.465 h 2551.18 v 28.348 H 0 Z"
         id="path3855"
         inkscape:connector-curvature="0" /></clipPath><clipPath
       clipPathUnits="userSpaceOnUse"
       id="clipPath3865"><path
         d="m 0,-603.16387 h 900.28889 v 10.23056 H 0 Z"
         id="path3863"
         inkscape:connector-curvature="0" /></clipPath><linearGradient
       x1="130"
       y1="-603"
       x2="130"
       y2="-593"
       gradientUnits="userSpaceOnUse"
       spreadMethod="pad"
       id="linearGradient3871"><stop
         style="stop-opacity:1;stop-color:#ffffff"
         offset="0"
         id="stop3867" /><stop
         style="stop-opacity:0;stop-color:#ffffff"
         offset="1"
         id="stop3869" /></linearGradient><mask
       maskUnits="userSpaceOnUse"
       x="0"
       y="0"
       width="1"
       height="1"
       id="mask3873"><g
         id="g3879"><g
           clip-path="url(#clipPath3865)"
           id="g3877"><path
             d="m 0,-603.16387 h 900.28889 v 10.23056 H 0 Z"
             style="fill:url(#linearGradient3871);stroke:none"
             id="path3875"
             inkscape:connector-curvature="0" /></g></g></mask><linearGradient
       x1="130"
       y1="-603"
       x2="130"
       y2="-593"
       gradientUnits="userSpaceOnUse"
       spreadMethod="pad"
       id="linearGradient3887"><stop
         style="stop-opacity:1;stop-color:#b3b3b3"
         offset="0"
         id="stop3883" /><stop
         style="stop-opacity:1;stop-color:#cccccc"
         offset="1"
         id="stop3885" /></linearGradient><clipPath
       clipPathUnits="userSpaceOnUse"
       id="clipPath4001"><path
         d="m 1361,2042.047 h 658 v 395.746 h -658 z"
         id="path3999"
         inkscape:connector-curvature="0" /></clipPath><clipPath
       clipPathUnits="userSpaceOnUse"
       id="clipPath4035"><path
         d="m 1756.258,2086.465 h 681.539 V 2480 h -681.539 z"
         id="path4033"
         inkscape:connector-curvature="0" /></clipPath><filter
       style="color-interpolation-filters:sRGB"
       inkscape:label="Blur"
       id="filter5528"><feGaussianBlur
         stdDeviation="100 100"
         result="blur"
         id="feGaussianBlur5526" /></filter><filter
       inkscape:collect="always"
       style="color-interpolation-filters:sRGB"
       id="filter5901"
       x="-0.15692765"
       width="1.3138553"
       y="-0.1779979"
       height="1.3559958"><feGaussianBlur
         inkscape:collect="always"
         stdDeviation="185.3476"
         id="feGaussianBlur5903" /></filter></defs><sodipodi:namedview
     pagecolor="#ffffff"
     bordercolor="#666666"
     borderopacity="1"
     objecttolerance="10"
     gridtolerance="10"
     guidetolerance="10"
     inkscape:pageopacity="0"
     inkscape:pageshadow="2"
     inkscape:window-width="1680"
     inkscape:window-height="990"
     id="namedview3753"
     showgrid="false"
     units="cm"
     inkscape:snap-page="true"
     inkscape:snap-nodes="true"
     inkscape:snap-bbox="false"
     inkscape:bbox-paths="true"
     inkscape:bbox-nodes="false"
     inkscape:zoom="0.11313708"
     inkscape:cx="2104.3895"
     inkscape:cy="1116.5248"
     inkscape:window-x="0"
     inkscape:window-y="0"
     inkscape:window-maximized="1"
     inkscape:current-layer="g3761"
     inkscape:snap-global="true"
     showguides="false"
     inkscape:object-paths="false"
     inkscape:snap-intersection-paths="true"
     inkscape:snap-smooth-nodes="true"
     inkscape:snap-bbox-midpoints="true"
     inkscape:snap-object-midpoints="true"
     fit-margin-top="0"
     fit-margin-left="0"
     fit-margin-right="0"
     fit-margin-bottom="0" /><g
     id="g3759"
     inkscape:groupmode="layer"
     inkscape:label="banner"
     transform="matrix(1.3333333,0,0,1.3333333,-4.6157644e-5,236.3971)"><g
       id="g3761"><path
         inkscape:connector-curvature="0"
         id="path5504"
         d="m 2552.214,-9.5240944 c -155.0466,0 -282.4319,127.3853544 -282.4319,282.4319044 0,43.2199 9.9026,84.28762 27.5391,121.04864 l -792.4948,911.63865 c -26.7222,-8.4746 -55.1161,-13.0557 -84.5051,-13.0557 -29.6512,0 -58.2873,4.6638 -85.2176,13.284 L 537.6455,393.36098 c 17.43525,-36.58908 27.21688,-77.42012 27.21688,-120.37657 0,-155.04655 -127.384,-282.4304544 -282.43045,-282.4304544 C 127.38538,-9.4460444 3.4618234e-5,117.93786 3.4618234e-5,272.98441 3.4618234e-5,416.96684 109.85356,537.09271 249.69827,553.50414 L 687.52978,1992.8633 c -60.5777,51.9507 -99.19102,128.9208 -99.19102,214.279 -2e-5,155.0466 127.38536,282.4319 282.43187,282.4319 155.04657,0 282.43197,-127.3853 282.43197,-282.4319 0,-43.2199 -9.9026,-84.2876 -27.5392,-121.0486 l 210.1528,-241.7461 c 26.7225,8.4748 55.1155,13.0542 84.5051,13.0542 29.6507,0 58.2878,-4.6626 85.2177,-13.2825 l 212.0663,242.648 c -17.4351,36.5889 -27.2182,77.4187 -27.2182,120.375 0,155.0466 127.3852,282.4319 282.4319,282.4319 155.0464,0 282.4304,-127.3853 282.4304,-282.4319 0,-85.7852 -38.9976,-163.0996 -100.0988,-215.0582 L 2586.1401,553.28012 c 139.2751,-16.95335 248.5057,-136.80011 248.5057,-280.37231 0,-155.04655 -127.3854,-282.4319044 -282.4318,-282.4319044 z m 0,170.2618644 c 62.7937,0 112.17,49.37637 112.17,112.17004 0,62.79378 -49.3763,112.17147 -112.17,112.17147 -62.7938,0 -112.1715,-49.37769 -112.1715,-112.17147 0,-62.79367 49.3777,-112.17004 112.1715,-112.17004 z m -2269.78351,0.0766 c 62.79377,0 112.17001,49.37636 112.17002,112.17003 0,62.79377 -49.37625,112.17292 -112.17002,112.17292 -62.79378,0 -112.17148,-49.37915 -112.17148,-112.17292 0,-62.79367 49.3777,-112.17003 112.17148,-112.17003 z M 2293.627,742.53636 1938.8929,1926.77 c -17.6322,2.1462 -34.7819,5.9404 -51.2902,11.2244 l -212.0663,-242.6479 c 17.4349,-36.5889 27.2169,-77.4191 27.2169,-120.3752 0,-43.2191 -9.9017,-84.2881 -27.5378,-121.0486 z m -1750.02098,0.92792 621.50158,711.12912 c -17.4353,36.5891 -27.2169,77.4213 -27.2169,120.3779 0,43.2198 9.9013,84.2876 27.5378,121.0487 l -210.15277,241.7475 c -16.66247,-5.2843 -33.97548,-9.0548 -51.77431,-11.1434 z m 876.71528,719.33692 c 62.7937,0 112.17,49.3764 112.17,112.1701 0,62.7938 -49.3763,112.1715 -112.17,112.1715 -62.7938,0 -112.1715,-49.3777 -112.1715,-112.1715 0,-62.7937 49.3777,-112.1701 112.1715,-112.1701 z m -549.55067,632.1726 c 62.79379,0 112.17004,49.3748 112.17004,112.1685 0,62.7938 -49.37625,112.173 -112.17004,112.173 -62.79372,0 -112.17146,-49.3792 -112.17146,-112.173 0,-62.7937 49.37774,-112.1685 112.17146,-112.1685 z m 1102.04837,0 c 62.7936,0 112.1685,49.3748 112.1685,112.1685 0,62.7938 -49.3749,112.173 -112.1685,112.173 -62.7938,0 -112.173,-49.3792 -112.173,-112.173 0,-62.7937 49.3792,-112.1685 112.173,-112.1685 z"
         style="color:#000000;font-style:normal;font-variant:normal;font-weight:normal;font-stretch:normal;font-size:medium;line-height:normal;font-family:sans-serif;font-variant-ligatures:normal;font-variant-position:normal;font-variant-caps:normal;font-variant-numeric:normal;font-variant-alternates:normal;font-feature-settings:normal;text-indent:0;text-align:start;text-decoration:none;text-decoration-line:none;text-decoration-style:solid;text-decoration-color:#000000;letter-spacing:normal;word-spacing:normal;text-transform:none;writing-mode:lr-tb;direction:ltr;text-orientation:mixed;dominant-baseline:auto;baseline-shift:baseline;text-anchor:start;white-space:normal;shape-padding:0;clip-rule:nonzero;display:inline;overflow:visible;visibility:visible;opacity:1;isolation:auto;mix-blend-mode:normal;color-interpolation:sRGB;color-interpolation-filters:linearRGB;solid-color:#000000;solid-opacity:1;vector-effect:none;fill:#ffffff;fill-opacity:1;fill-rule:nonzero;stroke:none;stroke-width:225.90315247;stroke-linecap:butt;stroke-linejoin:round;stroke-miterlimit:4;stroke-dasharray:none;stroke-dashoffset:0;stroke-opacity:1;color-rendering:auto;image-rendering:auto;shape-rendering:auto;text-rendering:auto;enable-background:accumulate" /></g></g></svg>